<?xml version="1.0" encoding="utf-8"?>
<!-- Generator: Adobe Illustrator 18.1.1, SVG Export Plug-In . SVG Version: 6.00 Build 0)  -->
<svg version="1.1" xmlns="http://www.w3.org/2000/svg" xmlns:xlink="http://www.w3.org/1999/xlink" x="0px" y="0px"
	 viewBox="0 0 100 100" enable-background="new 0 0 100 100" xml:space="preserve">

<g id="chrome">
	<g>
		<g id="XMLID_3_">
			<g>
				<path fill="#FCD630" d="M93.6,27.9c3.4,6.7,5.4,14.2,5.4,22.3C99,77.1,77.1,99,50.2,99c-1.9,0-3.7-0.1-5.5-0.3l21.5-35.2
					c3.2-3.8,5.1-8.7,5.1-14c0-10.7-7.7-19.6-17.8-21.5c-0.1,0-0.1,0-0.2,0l0-0.2l40.1-0.1C93.6,27.7,93.6,27.8,93.6,27.9z"/>
				<path fill="#DE3835" d="M93.5,27.7l-40.1,0.1l0,0.2c-1.3-0.2-2.6-0.3-3.9-0.3c-12,0-21.8,9.8-21.8,21.8c0,2.5,0.4,4.9,1.2,7.1
					L9.4,23.3C18.2,10.1,33.2,1.3,50.2,1.3C69,1.3,85.4,12,93.5,27.7z"/>
				<path fill="#5FBF60" d="M66.2,63.5L44.7,98.7C20.3,95.9,1.4,75.3,1.4,50.2c0-9.9,3-19.2,8.1-26.9l19.4,33.3
					c2.9,8.6,11.1,14.8,20.6,14.8C56.2,71.3,62.2,68.3,66.2,63.5z"/>
				<radialGradient id="SVGID_6_" cx="49.1022" cy="49.3472" r="18.0968" gradientUnits="userSpaceOnUse">
					<stop  offset="0.3409" style="stop-color:#76ADDA"/>
					<stop  offset="0.7683" style="stop-color:#478CBE"/>
					<stop  offset="1" style="stop-color:#2B79AD"/>
				</radialGradient>
				<path fill="url(#SVGID_6_)" d="M49.1,31.3c10,0,18.1,8.1,18.1,18.1c0,10-8.1,18.1-18.1,18.1c-10,0-18.1-8.1-18.1-18.1
					C31,39.3,39.1,31.3,49.1,31.3z"/>
			</g>
			<g>
				<radialGradient id="SVGID_7_" cx="49.1022" cy="49.3472" r="18.5968" gradientUnits="userSpaceOnUse">
					<stop  offset="0" style="stop-color:#76ADDA"/>
					<stop  offset="0.1466" style="stop-color:#5B9ACA"/>
					<stop  offset="0.3055" style="stop-color:#468BBD"/>
					<stop  offset="0.4823" style="stop-color:#3781B4"/>
					<stop  offset="0.6893" style="stop-color:#2E7BAF"/>
					<stop  offset="1" style="stop-color:#2B79AD"/>
				</radialGradient>
				<path fill="none" stroke="url(#SVGID_7_)" stroke-miterlimit="10" d="M67.2,49.4c0,10-8.1,18.1-18.1,18.1
					c-10,0-18.1-8.1-18.1-18.1c0-10,8.1-18.1,18.1-18.1C59.1,31.3,67.2,39.3,67.2,49.4z"/>
			</g>
		</g>
	</g>
</g>
</svg>
