<?xml version="1.0" encoding="utf-8"?>
<!-- Generator: Adobe Illustrator 18.1.1, SVG Export Plug-In . SVG Version: 6.00 Build 0)  -->
<svg version="1.1" xmlns="http://www.w3.org/2000/svg" xmlns:xlink="http://www.w3.org/1999/xlink" x="0px" y="0px"
	 viewBox="0 0 100 100" enable-background="new 0 0 100 100" xml:space="preserve">
<g id="Layer_1">
	
		<image overflow="visible" width="344" height="118" xlink:href="../../icons/Screen Shot 2015-08-03 at 12.17.34 AM.png"  transform="matrix(0.8433 0 0 0.8433 237.1859 -43.1583)">
	</image>
</g>
<g id="Safari">
	<g id="background_2_">
		<g id="outside-border_2_">
			
				<radialGradient id="SVGID_1_" cx="-153.9848" cy="200.7421" r="49.0327" gradientTransform="matrix(-0.866 -0.5 0.3 -0.5196 -347.5621 228.0583)" gradientUnits="userSpaceOnUse">
				<stop  offset="0.2" style="stop-color:#FFFFFF"/>
				<stop  offset="0.3191" style="stop-color:#F8F8F8"/>
				<stop  offset="0.4938" style="stop-color:#E4E4E4"/>
				<stop  offset="0.7029" style="stop-color:#C4C4C4"/>
				<stop  offset="0.9367" style="stop-color:#979797"/>
				<stop  offset="1" style="stop-color:#8A8A8A"/>
			</radialGradient>
			<circle fill="url(#SVGID_1_)" cx="-154" cy="200.7" r="49"/>
			
				<radialGradient id="SVGID_2_" cx="-153.6489" cy="201.0779" r="45.5428" gradientTransform="matrix(-0.866 -0.5 0.3 -0.5196 -347.0361 228.7367)" gradientUnits="userSpaceOnUse">
				<stop  offset="0.2" style="stop-color:#FFFFFF"/>
				<stop  offset="0.3191" style="stop-color:#F8F8F8"/>
				<stop  offset="0.4938" style="stop-color:#E4E4E4"/>
				<stop  offset="0.7029" style="stop-color:#C4C4C4"/>
				<stop  offset="0.9367" style="stop-color:#979797"/>
				<stop  offset="1" style="stop-color:#8A8A8A"/>
			</radialGradient>
			<circle fill="url(#SVGID_2_)" cx="-153.6" cy="201.1" r="45.5"/>
		</g>
		<radialGradient id="SVGID_3_" cx="-153.6139" cy="201.275" r="45.5428" gradientUnits="userSpaceOnUse">
			<stop  offset="0" style="stop-color:#1AA4C1"/>
			<stop  offset="0.2928" style="stop-color:#199FC2"/>
			<stop  offset="0.623" style="stop-color:#1792C5"/>
			<stop  offset="0.9701" style="stop-color:#137BCA"/>
			<stop  offset="1" style="stop-color:#1379CB"/>
		</radialGradient>
		<circle fill="url(#SVGID_3_)" cx="-153.6" cy="201.3" r="45.5"/>
	</g>
	<g id="arrow_2_">
		
			<line fill="none" stroke="#ADADAD" stroke-linecap="round" stroke-linejoin="round" stroke-miterlimit="10" x1="-153.6" y1="244" x2="-153.6" y2="235.3"/>
		<g id="XMLID_1_">
			<g>
				<polygon fill="#A02020" points="-123,169.2 -147.4,205.8 -153.3,200 				"/>
				<polygon fill="#DB3B3B" points="-123,169.2 -153.3,200 -158.9,194.6 				"/>
				<polygon fill="#898888" points="-147.4,205.8 -184.4,231.6 -153.3,200 				"/>
				<polygon fill="#CECCCC" points="-158.9,194.6 -153.3,200 -184.4,231.6 				"/>
			</g>
			<g>
			</g>
		</g>
	</g>
	<g id="time-needles_2_">
		
			<line fill="none" stroke="#ADADAD" stroke-linecap="round" stroke-linejoin="round" stroke-miterlimit="10" x1="-145.1" y1="243" x2="-146.7" y2="234.9"/>
		
			<line fill="none" stroke="#ADADAD" stroke-linecap="round" stroke-linejoin="round" stroke-miterlimit="10" x1="-137" y1="240.5" x2="-140.2" y2="233"/>
		
			<line fill="none" stroke="#ADADAD" stroke-linecap="round" stroke-linejoin="round" stroke-miterlimit="10" x1="-129.8" y1="236.2" x2="-133.9" y2="229.9"/>
		
			<line fill="none" stroke="#ADADAD" stroke-linecap="round" stroke-linejoin="round" stroke-miterlimit="10" x1="-123.5" y1="230.8" x2="-128.8" y2="225.6"/>
		
			<line fill="none" stroke="#ADADAD" stroke-linecap="round" stroke-linejoin="round" stroke-miterlimit="10" x1="-118" y1="224.6" x2="-124.4" y2="220.2"/>
		
			<line fill="none" stroke="#ADADAD" stroke-linecap="round" stroke-linejoin="round" stroke-miterlimit="10" x1="-113.9" y1="217.3" x2="-121" y2="213.9"/>
		
			<line fill="none" stroke="#ADADAD" stroke-linecap="round" stroke-linejoin="round" stroke-miterlimit="10" x1="-111.4" y1="208.9" x2="-118.9" y2="207.9"/>
		
			<line fill="none" stroke="#ADADAD" stroke-linecap="round" stroke-linejoin="round" stroke-miterlimit="10" x1="-110.6" y1="200.8" x2="-118.9" y2="200.8"/>
		
			<line fill="none" stroke="#ADADAD" stroke-linecap="round" stroke-linejoin="round" stroke-miterlimit="10" x1="-111.6" y1="192.3" x2="-119.1" y2="194.5"/>
		
			<line fill="none" stroke="#ADADAD" stroke-linecap="round" stroke-linejoin="round" stroke-miterlimit="10" x1="-114.1" y1="183.9" x2="-121.1" y2="187.9"/>
		
			<line fill="none" stroke="#ADADAD" stroke-linecap="round" stroke-linejoin="round" stroke-miterlimit="10" x1="-118.2" y1="177.2" x2="-124.2" y2="181.7"/>
		
			<line fill="none" stroke="#ADADAD" stroke-linecap="round" stroke-linejoin="round" stroke-miterlimit="10" x1="-129.8" y1="165.3" x2="-134.1" y2="171.9"/>
		
			<line fill="none" stroke="#ADADAD" stroke-linecap="round" stroke-linejoin="round" stroke-miterlimit="10" x1="-136.8" y1="161.1" x2="-140.4" y2="168.6"/>
		
			<line fill="none" stroke="#ADADAD" stroke-linecap="round" stroke-linejoin="round" stroke-miterlimit="10" x1="-145.4" y1="158.8" x2="-146.5" y2="166.3"/>
		
			<line fill="none" stroke="#ADADAD" stroke-linecap="round" stroke-linejoin="round" stroke-miterlimit="10" x1="-153.6" y1="157.9" x2="-153.5" y2="166.7"/>
		
			<line fill="none" stroke="#ADADAD" stroke-linecap="round" stroke-linejoin="round" stroke-miterlimit="10" x1="-161.8" y1="158.6" x2="-160.1" y2="166.6"/>
		
			<line fill="none" stroke="#ADADAD" stroke-linecap="round" stroke-linejoin="round" stroke-miterlimit="10" x1="-170.6" y1="161.3" x2="-166.7" y2="168.3"/>
		
			<line fill="none" stroke="#ADADAD" stroke-linecap="round" stroke-linejoin="round" stroke-miterlimit="10" x1="-177.1" y1="165.4" x2="-172.8" y2="171.9"/>
		
			<line fill="none" stroke="#ADADAD" stroke-linecap="round" stroke-linejoin="round" stroke-miterlimit="10" x1="-183.7" y1="170.7" x2="-178.3" y2="176.1"/>
		
			<line fill="none" stroke="#ADADAD" stroke-linecap="round" stroke-linejoin="round" stroke-miterlimit="10" x1="-189.1" y1="177" x2="-182.7" y2="181.6"/>
		
			<line fill="none" stroke="#ADADAD" stroke-linecap="round" stroke-linejoin="round" stroke-miterlimit="10" x1="-192.4" y1="184.6" x2="-185.8" y2="187.7"/>
		
			<line fill="none" stroke="#ADADAD" stroke-linecap="round" stroke-linejoin="round" stroke-miterlimit="10" x1="-195.5" y1="192.6" x2="-188" y2="194.2"/>
		
			<line fill="none" stroke="#ADADAD" stroke-linecap="round" stroke-linejoin="round" stroke-miterlimit="10" x1="-196.3" y1="200.8" x2="-188.1" y2="200.7"/>
		
			<line fill="none" stroke="#ADADAD" stroke-linecap="round" stroke-linejoin="round" stroke-miterlimit="10" x1="-195.5" y1="209.5" x2="-188" y2="207.6"/>
		
			<line fill="none" stroke="#ADADAD" stroke-linecap="round" stroke-linejoin="round" stroke-miterlimit="10" x1="-193.3" y1="217.7" x2="-185.9" y2="214"/>
		
			<line fill="none" stroke="#ADADAD" stroke-linecap="round" stroke-linejoin="round" stroke-miterlimit="10" x1="-188.9" y1="224.5" x2="-182.5" y2="220.3"/>
		
			<line fill="none" stroke="#ADADAD" stroke-linecap="round" stroke-linejoin="round" stroke-miterlimit="10" x1="-177.2" y1="236.4" x2="-172.8" y2="230.2"/>
		
			<line fill="none" stroke="#ADADAD" stroke-linecap="round" stroke-linejoin="round" stroke-miterlimit="10" x1="-169.5" y1="239.9" x2="-166.8" y2="233.6"/>
		
			<line fill="none" stroke="#ADADAD" stroke-linecap="round" stroke-linejoin="round" stroke-miterlimit="10" x1="-161.7" y1="242.5" x2="-160.4" y2="235.5"/>
	</g>
</g>
<g id="firefox">
	<circle fill="#105A98" cx="168.6" cy="-29.7" r="44.9"/>
	<g>
		<g>
			<g id="XMLID_2_">
				<g>
					<linearGradient id="SVGID_4_" gradientUnits="userSpaceOnUse" x1="149.9833" y1="-46.232" x2="166.6674" y2="-46.232">
						<stop  offset="0" style="stop-color:#FEED6C"/>
						<stop  offset="9.995610e-02" style="stop-color:#F5C75C"/>
						<stop  offset="0.2089" style="stop-color:#EDA64E"/>
						<stop  offset="0.326" style="stop-color:#E78A43"/>
						<stop  offset="0.4522" style="stop-color:#E2753A"/>
						<stop  offset="0.5917" style="stop-color:#DF6634"/>
						<stop  offset="0.755" style="stop-color:#DD5D30"/>
						<stop  offset="1" style="stop-color:#DC5A2F"/>
					</linearGradient>
					<path fill="url(#SVGID_4_)" d="M166-50.7c0,0,1.8,3-0.3,6.2c-1.3,1.9-3.9,4-9.3,5.5c-12.3-7-3-14.4-3-14.4s1.4,3,4.5,2.9
						C157.8-50.6,165.6-50.5,166-50.7z"/>
				</g>
				<g>
				</g>
			</g>
		</g>
		<linearGradient id="SVGID_5_" gradientUnits="userSpaceOnUse" x1="216.5728" y1="-24.9796" x2="119.0844" y2="-24.9796">
			<stop  offset="0" style="stop-color:#FEED6C"/>
			<stop  offset="9.995610e-02" style="stop-color:#F5C75C"/>
			<stop  offset="0.2089" style="stop-color:#EDA64E"/>
			<stop  offset="0.326" style="stop-color:#E78A43"/>
			<stop  offset="0.4522" style="stop-color:#E2753A"/>
			<stop  offset="0.5917" style="stop-color:#DF6634"/>
			<stop  offset="0.755" style="stop-color:#DD5D30"/>
			<stop  offset="1" style="stop-color:#DC5A2F"/>
		</linearGradient>
		<path fill="url(#SVGID_5_)" d="M153.1-33.6c0,0-4.6,0.6-2.8,5.4c0,0,1.3,4.3,6.7,5.9c0,0,5.2,1.7,10-1.5c0,0,1.9-2,6.3-0.6
			c0,0,5.9,0.7,4.6,5.8c0,0-6.3,0.7-7.4,3c0,0-3,3.7-7.8,3c0,0-5.2,0.4-7.4,0.2c0,0,6.3,7.2,13.9,7.2c0,0,9.5,0.7,13.4-2.2
			c0,0,2.6-2.2,3.2-4.6c0,0,0.9,2.2,0.4,4.1c0,0,7.4-4.8,7.4-16c0,0,2.2,1.1,2.4,3.2c0,0,1.5-11.3-0.4-19.7c0,0,3.9,1.1,4.8,6.1
			c0,0,0.9-17.6-10-25.6c0,0,5.9,2,9.3,4.8c0,0-6.1-10.4-13.7-14.3c0,0,11,3.7,13.6,6.9c0.9,1.1,0-4.1,0-4.1
			c6.3,3.9,9.5,8.9,9.5,8.9c6.5,11.1,5,19.9,5,19.9c1.9-0.9,1.9-3.7,1.9-3.7c3,17.3-3.7,26.9-3.7,26.9c0.6,5.9-1.1,9.3-1.1,9.3
			c-3.2,6.7-11.9,11.5-11.9,11.5c-2.2,9.3-13.9,10.2-13.9,10.2c-10.2,2.2-15.6,0.6-15.6,0.6l1.1,1.9c-7.2,0.2-11.5-1.9-11.5-1.9
			l1.5,2.6c-13.6-3.2-21.5-11.1-21.5-11.1c-10.4-9.1-13.7-15.8-13.7-15.8c-4.1-6.1-3.9-17.1-3.9-17.1l-1.5,3
			c-0.9-12.8,0.9-13.6,0.9-13.6l-1.9,0.9c1.3-10.2,6.9-16,6.9-16c-2.8-9.3,4.5-17.5,4.5-17.5s0.6,8,3.7,8.9c0,0,8.7-0.2,13.4,0.6
			c0,0,5.4-7.4,12.3-5c0,0-5.1,4.2-6.3,9c-0.3,1.1-0.3,1.7-0.2,2.4c0,0-0.6,6.9,1.9,11c0,0,2.2,1.5,1.7,7.8
			C156.8-33.1,155.2-33.4,153.1-33.6"/>
	</g>
</g>
<g id="chrome">
	<g>
		<g id="XMLID_3_">
			<g>
				<path fill="#FCD630" d="M93.6,27.9c3.4,6.7,5.4,14.2,5.4,22.3C99,77.1,77.1,99,50.2,99c-1.9,0-3.7-0.1-5.5-0.3l21.5-35.2
					c3.2-3.8,5.1-8.7,5.1-14c0-10.7-7.7-19.6-17.8-21.5c-0.1,0-0.1,0-0.2,0l0-0.2l40.1-0.1C93.6,27.7,93.6,27.8,93.6,27.9z"/>
				<path fill="#DE3835" d="M93.5,27.7l-40.1,0.1l0,0.2c-1.3-0.2-2.6-0.3-3.9-0.3c-12,0-21.8,9.8-21.8,21.8c0,2.5,0.4,4.9,1.2,7.1
					L9.4,23.3C18.2,10.1,33.2,1.3,50.2,1.3C69,1.3,85.4,12,93.5,27.7z"/>
				<path fill="#5FBF60" d="M66.2,63.5L44.7,98.7C20.3,95.9,1.4,75.3,1.4,50.2c0-9.9,3-19.2,8.1-26.9l19.4,33.3
					c2.9,8.6,11.1,14.8,20.6,14.8C56.2,71.3,62.2,68.3,66.2,63.5z"/>
				<radialGradient id="SVGID_6_" cx="49.1022" cy="49.3472" r="18.0968" gradientUnits="userSpaceOnUse">
					<stop  offset="0.3409" style="stop-color:#76ADDA"/>
					<stop  offset="0.7683" style="stop-color:#478CBE"/>
					<stop  offset="1" style="stop-color:#2B79AD"/>
				</radialGradient>
				<path fill="url(#SVGID_6_)" d="M49.1,31.3c10,0,18.1,8.1,18.1,18.1c0,10-8.1,18.1-18.1,18.1c-10,0-18.1-8.1-18.1-18.1
					C31,39.3,39.1,31.3,49.1,31.3z"/>
			</g>
			<g>
				<radialGradient id="SVGID_7_" cx="49.1022" cy="49.3472" r="18.5968" gradientUnits="userSpaceOnUse">
					<stop  offset="0" style="stop-color:#76ADDA"/>
					<stop  offset="0.1466" style="stop-color:#5B9ACA"/>
					<stop  offset="0.3055" style="stop-color:#468BBD"/>
					<stop  offset="0.4823" style="stop-color:#3781B4"/>
					<stop  offset="0.6893" style="stop-color:#2E7BAF"/>
					<stop  offset="1" style="stop-color:#2B79AD"/>
				</radialGradient>
				<path fill="none" stroke="url(#SVGID_7_)" stroke-miterlimit="10" d="M67.2,49.4c0,10-8.1,18.1-18.1,18.1
					c-10,0-18.1-8.1-18.1-18.1c0-10,8.1-18.1,18.1-18.1C59.1,31.3,67.2,39.3,67.2,49.4z"/>
			</g>
		</g>
	</g>
</g>
</svg>
