<?xml version="1.0" encoding="utf-8"?>
<!-- Generator: Adobe Illustrator 18.1.1, SVG Export Plug-In . SVG Version: 6.00 Build 0)  -->
<svg version="1.1" xmlns="http://www.w3.org/2000/svg" xmlns:xlink="http://www.w3.org/1999/xlink" x="0px" y="0px"
	 viewBox="0 0 100 100" enable-background="new 0 0 100 100" xml:space="preserve">
<g id="firefox">
	<circle fill="#105A98" cx="51" cy="48.8" r="44.9"/>
	<g>
		<g>
			<g id="XMLID_2_">
				<g>
					<linearGradient id="SVGID_4_" gradientUnits="userSpaceOnUse" x1="32.4104" y1="32.2828" x2="49.0946" y2="32.2828">
						<stop  offset="0" style="stop-color:#FEED6C"/>
						<stop  offset="9.995610e-02" style="stop-color:#F5C75C"/>
						<stop  offset="0.2089" style="stop-color:#EDA64E"/>
						<stop  offset="0.326" style="stop-color:#E78A43"/>
						<stop  offset="0.4522" style="stop-color:#E2753A"/>
						<stop  offset="0.5917" style="stop-color:#DF6634"/>
						<stop  offset="0.755" style="stop-color:#DD5D30"/>
						<stop  offset="1" style="stop-color:#DC5A2F"/>
					</linearGradient>
					<path fill="url(#SVGID_4_)" d="M48.4,27.8c0,0,1.8,3-0.3,6.2c-1.3,1.9-3.9,4-9.3,5.5c-12.3-7-3-14.4-3-14.4s1.4,3,4.5,2.9
						C40.2,28,48,28,48.4,27.8z"/>
				</g>
				<g>
				</g>
			</g>
		</g>
		<linearGradient id="SVGID_5_" gradientUnits="userSpaceOnUse" x1="99" y1="53.5351" x2="1.5116" y2="53.5351">
			<stop  offset="0" style="stop-color:#FEED6C"/>
			<stop  offset="9.995610e-02" style="stop-color:#F5C75C"/>
			<stop  offset="0.2089" style="stop-color:#EDA64E"/>
			<stop  offset="0.326" style="stop-color:#E78A43"/>
			<stop  offset="0.4522" style="stop-color:#E2753A"/>
			<stop  offset="0.5917" style="stop-color:#DF6634"/>
			<stop  offset="0.755" style="stop-color:#DD5D30"/>
			<stop  offset="1" style="stop-color:#DC5A2F"/>
		</linearGradient>
		<path fill="url(#SVGID_5_)" d="M35.5,44.9c0,0-4.6,0.6-2.8,5.4c0,0,1.3,4.3,6.7,5.9c0,0,5.2,1.7,10-1.5c0,0,1.9-2,6.3-0.6
			c0,0,5.9,0.7,4.6,5.8c0,0-6.3,0.7-7.4,3c0,0-3,3.7-7.8,3c0,0-5.2,0.4-7.4,0.2c0,0,6.3,7.2,13.9,7.2c0,0,9.5,0.7,13.4-2.2
			c0,0,2.6-2.2,3.2-4.6c0,0,0.9,2.2,0.4,4.1c0,0,7.4-4.8,7.4-16c0,0,2.2,1.1,2.4,3.2c0,0,1.5-11.3-0.4-19.7c0,0,3.9,1.1,4.8,6.1
			c0,0,0.9-17.6-10-25.6c0,0,5.9,2,9.3,4.8c0,0-6.1-10.4-13.7-14.3c0,0,11,3.7,13.6,6.9c0.9,1.1,0-4.1,0-4.1
			c6.3,3.9,9.5,8.9,9.5,8.9c6.5,11.1,5,19.9,5,19.9c1.9-0.9,1.9-3.7,1.9-3.7c3,17.3-3.7,26.9-3.7,26.9c0.6,5.9-1.1,9.3-1.1,9.3
			c-3.2,6.7-11.9,11.5-11.9,11.5c-2.2,9.3-13.9,10.2-13.9,10.2C57.4,97.1,52,95.4,52,95.4l1.1,1.9c-7.2,0.2-11.5-1.9-11.5-1.9
			l1.5,2.6c-13.6-3.2-21.5-11.1-21.5-11.1C11.2,77.8,7.8,71.1,7.8,71.1C3.7,65,3.9,54,3.9,54l-1.5,3C1.5,44.2,3.4,43.4,3.4,43.4
			l-1.9,0.9c1.3-10.2,6.9-16,6.9-16c-2.8-9.3,4.5-17.5,4.5-17.5s0.6,8,3.7,8.9c0,0,8.7-0.2,13.4,0.6c0,0,5.4-7.4,12.3-5
			c0,0-5.1,4.2-6.3,9c-0.3,1.1-0.3,1.7-0.2,2.4c0,0-0.6,6.9,1.9,11c0,0,2.2,1.5,1.7,7.8C39.2,45.5,37.6,45.1,35.5,44.9"/>
	</g>
</g>
</svg>
