<?xml version="1.0" encoding="utf-8"?>
<!-- Generator: Adobe Illustrator 18.1.1, SVG Export Plug-In . SVG Version: 6.00 Build 0)  -->
<svg version="1.1" xmlns="http://www.w3.org/2000/svg" xmlns:xlink="http://www.w3.org/1999/xlink" x="0px" y="0px"
	 viewBox="0 0 100 100" enable-background="new 0 0 100 100" xml:space="preserve">
<g id="Layer_1">
	
		<image overflow="visible" width="344" height="118" xlink:href="../../icons/Screen Shot 2015-08-03 at 12.17.34 AM.png"  transform="matrix(0.8433 0 0 0.8433 237.1859 -43.1583)">
	</image>
</g>
<g id="Safari">
	<g id="background_2_">
		<g id="outside-border_2_">
			
				<radialGradient id="SVGID_1_" cx="49.4875" cy="50.2283" r="49.0327" gradientTransform="matrix(-0.866 -0.5 0.3 -0.5196 77.2765 101.0715)" gradientUnits="userSpaceOnUse">
				<stop  offset="0.2" style="stop-color:#FFFFFF"/>
				<stop  offset="0.3191" style="stop-color:#F8F8F8"/>
				<stop  offset="0.4938" style="stop-color:#E4E4E4"/>
				<stop  offset="0.7029" style="stop-color:#C4C4C4"/>
				<stop  offset="0.9367" style="stop-color:#979797"/>
				<stop  offset="1" style="stop-color:#8A8A8A"/>
			</radialGradient>
			<circle fill="url(#SVGID_1_)" cx="49.5" cy="50.2" r="49"/>
			
				<radialGradient id="SVGID_2_" cx="49.8234" cy="50.5642" r="45.5428" gradientTransform="matrix(-0.866 -0.5 0.3 -0.5196 77.8025 101.7498)" gradientUnits="userSpaceOnUse">
				<stop  offset="0.2" style="stop-color:#FFFFFF"/>
				<stop  offset="0.3191" style="stop-color:#F8F8F8"/>
				<stop  offset="0.4938" style="stop-color:#E4E4E4"/>
				<stop  offset="0.7029" style="stop-color:#C4C4C4"/>
				<stop  offset="0.9367" style="stop-color:#979797"/>
				<stop  offset="1" style="stop-color:#8A8A8A"/>
			</radialGradient>
			<circle fill="url(#SVGID_2_)" cx="49.8" cy="50.6" r="45.5"/>
		</g>
		<radialGradient id="SVGID_3_" cx="49.8584" cy="50.7612" r="45.5428" gradientUnits="userSpaceOnUse">
			<stop  offset="0" style="stop-color:#1AA4C1"/>
			<stop  offset="0.2928" style="stop-color:#199FC2"/>
			<stop  offset="0.623" style="stop-color:#1792C5"/>
			<stop  offset="0.9701" style="stop-color:#137BCA"/>
			<stop  offset="1" style="stop-color:#1379CB"/>
		</radialGradient>
		<circle fill="url(#SVGID_3_)" cx="49.9" cy="50.8" r="45.5"/>
	</g>
	<g id="arrow_2_">
		
			<line fill="none" stroke="#ADADAD" stroke-linecap="round" stroke-linejoin="round" stroke-miterlimit="10" x1="49.9" y1="93.5" x2="49.9" y2="84.8"/>
		<g id="XMLID_1_">
			<g>
				<polygon fill="#A02020" points="80.5,18.6 56.1,55.3 50.1,49.5 				"/>
				<polygon fill="#DB3B3B" points="80.5,18.6 50.1,49.5 44.6,44.1 				"/>
				<polygon fill="#898888" points="56.1,55.3 19.1,81.1 50.1,49.5 				"/>
				<polygon fill="#CECCCC" points="44.6,44.1 50.1,49.5 19.1,81.1 				"/>
			</g>
			<g>
			</g>
		</g>
	</g>
	<g id="time-needles_2_">
		
			<line fill="none" stroke="#ADADAD" stroke-linecap="round" stroke-linejoin="round" stroke-miterlimit="10" x1="58.4" y1="92.5" x2="56.8" y2="84.4"/>
		
			<line fill="none" stroke="#ADADAD" stroke-linecap="round" stroke-linejoin="round" stroke-miterlimit="10" x1="66.5" y1="90" x2="63.2" y2="82.5"/>
		
			<line fill="none" stroke="#ADADAD" stroke-linecap="round" stroke-linejoin="round" stroke-miterlimit="10" x1="73.7" y1="85.7" x2="69.6" y2="79.4"/>
		
			<line fill="none" stroke="#ADADAD" stroke-linecap="round" stroke-linejoin="round" stroke-miterlimit="10" x1="80" y1="80.3" x2="74.7" y2="75.1"/>
		
			<line fill="none" stroke="#ADADAD" stroke-linecap="round" stroke-linejoin="round" stroke-miterlimit="10" x1="85.4" y1="74.1" x2="79.1" y2="69.7"/>
		
			<line fill="none" stroke="#ADADAD" stroke-linecap="round" stroke-linejoin="round" stroke-miterlimit="10" x1="89.5" y1="66.7" x2="82.5" y2="63.4"/>
		
			<line fill="none" stroke="#ADADAD" stroke-linecap="round" stroke-linejoin="round" stroke-miterlimit="10" x1="92" y1="58.4" x2="84.5" y2="57.3"/>
		
			<line fill="none" stroke="#ADADAD" stroke-linecap="round" stroke-linejoin="round" stroke-miterlimit="10" x1="92.9" y1="50.3" x2="84.5" y2="50.3"/>
		
			<line fill="none" stroke="#ADADAD" stroke-linecap="round" stroke-linejoin="round" stroke-miterlimit="10" x1="91.9" y1="41.8" x2="84.4" y2="44"/>
		
			<line fill="none" stroke="#ADADAD" stroke-linecap="round" stroke-linejoin="round" stroke-miterlimit="10" x1="89.4" y1="33.4" x2="82.3" y2="37.4"/>
		
			<line fill="none" stroke="#ADADAD" stroke-linecap="round" stroke-linejoin="round" stroke-miterlimit="10" x1="85.3" y1="26.6" x2="79.3" y2="31.2"/>
		
			<line fill="none" stroke="#ADADAD" stroke-linecap="round" stroke-linejoin="round" stroke-miterlimit="10" x1="73.7" y1="14.7" x2="69.4" y2="21.3"/>
		
			<line fill="none" stroke="#ADADAD" stroke-linecap="round" stroke-linejoin="round" stroke-miterlimit="10" x1="66.6" y1="10.6" x2="63.1" y2="18.1"/>
		
			<line fill="none" stroke="#ADADAD" stroke-linecap="round" stroke-linejoin="round" stroke-miterlimit="10" x1="58.1" y1="8.3" x2="56.9" y2="15.8"/>
		
			<line fill="none" stroke="#ADADAD" stroke-linecap="round" stroke-linejoin="round" stroke-miterlimit="10" x1="49.9" y1="7.4" x2="50" y2="16.2"/>
		
			<line fill="none" stroke="#ADADAD" stroke-linecap="round" stroke-linejoin="round" stroke-miterlimit="10" x1="41.6" y1="8.1" x2="43.4" y2="16.1"/>
		
			<line fill="none" stroke="#ADADAD" stroke-linecap="round" stroke-linejoin="round" stroke-miterlimit="10" x1="32.8" y1="10.8" x2="36.8" y2="17.8"/>
		
			<line fill="none" stroke="#ADADAD" stroke-linecap="round" stroke-linejoin="round" stroke-miterlimit="10" x1="26.4" y1="14.9" x2="30.6" y2="21.3"/>
		
			<line fill="none" stroke="#ADADAD" stroke-linecap="round" stroke-linejoin="round" stroke-miterlimit="10" x1="19.8" y1="20.2" x2="25.2" y2="25.6"/>
		
			<line fill="none" stroke="#ADADAD" stroke-linecap="round" stroke-linejoin="round" stroke-miterlimit="10" x1="14.3" y1="26.5" x2="20.8" y2="31"/>
		
			<line fill="none" stroke="#ADADAD" stroke-linecap="round" stroke-linejoin="round" stroke-miterlimit="10" x1="11.1" y1="34.1" x2="17.7" y2="37.2"/>
		
			<line fill="none" stroke="#ADADAD" stroke-linecap="round" stroke-linejoin="round" stroke-miterlimit="10" x1="8" y1="42.1" x2="15.5" y2="43.7"/>
		
			<line fill="none" stroke="#ADADAD" stroke-linecap="round" stroke-linejoin="round" stroke-miterlimit="10" x1="7.1" y1="50.3" x2="15.4" y2="50.1"/>
		
			<line fill="none" stroke="#ADADAD" stroke-linecap="round" stroke-linejoin="round" stroke-miterlimit="10" x1="8" y1="59" x2="15.5" y2="57"/>
		
			<line fill="none" stroke="#ADADAD" stroke-linecap="round" stroke-linejoin="round" stroke-miterlimit="10" x1="10.2" y1="67.2" x2="17.6" y2="63.5"/>
		
			<line fill="none" stroke="#ADADAD" stroke-linecap="round" stroke-linejoin="round" stroke-miterlimit="10" x1="14.6" y1="73.9" x2="20.9" y2="69.8"/>
		
			<line fill="none" stroke="#ADADAD" stroke-linecap="round" stroke-linejoin="round" stroke-miterlimit="10" x1="26.2" y1="85.8" x2="30.6" y2="79.7"/>
		
			<line fill="none" stroke="#ADADAD" stroke-linecap="round" stroke-linejoin="round" stroke-miterlimit="10" x1="34" y1="89.4" x2="36.7" y2="83.1"/>
		
			<line fill="none" stroke="#ADADAD" stroke-linecap="round" stroke-linejoin="round" stroke-miterlimit="10" x1="41.8" y1="92" x2="43.1" y2="85"/>
	</g>
</g>
<g id="firefox">
	<circle fill="#105A98" cx="182" cy="-85.9" r="38.4"/>
	<g>
		<g>
			<g id="XMLID_2_">
				<g>
					<linearGradient id="SVGID_4_" gradientUnits="userSpaceOnUse" x1="166.0507" y1="-100.04" x2="180.3385" y2="-100.04">
						<stop  offset="0" style="stop-color:#FEED6C"/>
						<stop  offset="9.995610e-02" style="stop-color:#F5C75C"/>
						<stop  offset="0.2089" style="stop-color:#EDA64E"/>
						<stop  offset="0.326" style="stop-color:#E78A43"/>
						<stop  offset="0.4522" style="stop-color:#E2753A"/>
						<stop  offset="0.5917" style="stop-color:#DF6634"/>
						<stop  offset="0.755" style="stop-color:#DD5D30"/>
						<stop  offset="1" style="stop-color:#DC5A2F"/>
					</linearGradient>
					<path fill="url(#SVGID_4_)" d="M179.7-103.9c0,0,1.5,2.6-0.3,5.3c-1.1,1.7-3.4,3.4-7.9,4.7c-10.6-6-2.6-12.3-2.6-12.3
						s1.2,2.6,3.8,2.5C172.8-103.7,179.4-103.7,179.7-103.9z"/>
				</g>
				<g>
				</g>
			</g>
		</g>
		<linearGradient id="SVGID_5_" gradientUnits="userSpaceOnUse" x1="223.076" y1="-81.8401" x2="139.5898" y2="-81.8401">
			<stop  offset="0" style="stop-color:#FEED6C"/>
			<stop  offset="9.995610e-02" style="stop-color:#F5C75C"/>
			<stop  offset="0.2089" style="stop-color:#EDA64E"/>
			<stop  offset="0.326" style="stop-color:#E78A43"/>
			<stop  offset="0.4522" style="stop-color:#E2753A"/>
			<stop  offset="0.5917" style="stop-color:#DF6634"/>
			<stop  offset="0.755" style="stop-color:#DD5D30"/>
			<stop  offset="1" style="stop-color:#DC5A2F"/>
		</linearGradient>
		<path fill="url(#SVGID_5_)" d="M168.7-89.2c0,0-4,0.5-2.4,4.6c0,0,1.1,3.7,5.7,5.1c0,0,4.5,1.4,8.6-1.3c0,0,1.6-1.7,5.4-0.5
			c0,0,5.1,0.6,4,4.9c0,0-5.4,0.6-6.4,2.5c0,0-2.5,3.2-6.7,2.5c0,0-4.5,0.3-6.4,0.2c0,0,5.4,6.2,11.9,6.2c0,0,8.1,0.6,11.4-1.9
			c0,0,2.2-1.9,2.7-4c0,0,0.8,1.9,0.3,3.5c0,0,6.4-4.1,6.4-13.7c0,0,1.9,1,2.1,2.7c0,0,1.3-9.7-0.3-16.9c0,0,3.3,1,4.1,5.2
			c0,0,0.8-15.1-8.6-21.9c0,0,5.1,1.7,7.9,4.1c0,0-5.2-8.9-11.8-12.2c0,0,9.4,3.2,11.6,5.9c0.8,1,0-3.5,0-3.5
			c5.4,3.3,8.1,7.6,8.1,7.6c5.6,9.5,4.3,17,4.3,17c1.6-0.8,1.6-3.2,1.6-3.2c2.5,14.8-3.2,23.1-3.2,23.1c0.5,5.1-1,7.9-1,7.9
			c-2.7,5.7-10.2,9.9-10.2,9.9c-1.9,7.9-11.9,8.7-11.9,8.7c-8.7,1.9-13.4,0.5-13.4,0.5l1,1.6c-6.2,0.2-9.9-1.6-9.9-1.6l1.3,2.2
			c-11.6-2.7-18.4-9.5-18.4-9.5c-8.9-7.8-11.8-13.5-11.8-13.5c-3.5-5.2-3.3-14.6-3.3-14.6l-1.3,2.5c-0.8-11,0.8-11.6,0.8-11.6
			l-1.6,0.8c1.1-8.7,5.9-13.7,5.9-13.7c-2.4-7.9,3.8-14.9,3.8-14.9s0.5,6.8,3.2,7.6c0,0,7.5-0.2,11.4,0.5c0,0,4.6-6.4,10.5-4.3
			c0,0-4.4,3.6-5.4,7.7c-0.2,1-0.3,1.5-0.2,2c0,0-0.5,5.9,1.6,9.4c0,0,1.9,1.3,1.4,6.7C171.9-88.8,170.5-89.1,168.7-89.2"/>
	</g>
</g>
<g id="chrome">
	<g>
		<g id="XMLID_3_">
			<g>
				<path fill="#5FBF60" d="M-62.7-76l-16.9,27.7c-19.2-2.2-34.1-18.4-34.1-38.2c0-7.8,2.3-15.1,6.3-21.2l15.3,26.2
					c2.3,6.8,8.7,11.6,16.3,11.6C-70.6-69.9-65.8-72.3-62.7-76z"/>
				<path fill="#DE3835" d="M-41.2-104.3l-31.6,0.1l0,0.2c-1-0.2-2-0.3-3.1-0.3c-9.5,0-17.2,7.7-17.2,17.2c0,2,0.3,3.8,0.9,5.6
					l-15.3-26.2c6.9-10.4,18.7-17.3,32.1-17.3C-60.5-125-47.6-116.6-41.2-104.3z"/>
				<path fill="#FCD630" d="M-41.1-104.1c2.7,5.2,4.2,11.2,4.2,17.5c0,21.2-17.2,38.5-38.5,38.5c-1.5,0-2.9-0.1-4.3-0.2L-62.7-76
					c2.5-3,4-6.8,4-11.1c0-8.4-6-15.4-14-16.9c0,0-0.1,0-0.1,0l0-0.2l31.6-0.1C-41.1-104.2-41.1-104.1-41.1-104.1z"/>
				<radialGradient id="SVGID_6_" cx="-76.155" cy="-87.185" r="14.255" gradientUnits="userSpaceOnUse">
					<stop  offset="0.3409" style="stop-color:#76ADDA"/>
					<stop  offset="0.7683" style="stop-color:#478CBE"/>
					<stop  offset="1" style="stop-color:#2B79AD"/>
				</radialGradient>
				<path fill="url(#SVGID_6_)" d="M-76.2-101.4c7.9,0,14.2,6.4,14.2,14.3c0,7.9-6.4,14.2-14.2,14.2c-7.9,0-14.3-6.4-14.3-14.2
					C-90.4-95.1-84-101.4-76.2-101.4z"/>
			</g>
			<g>
				<radialGradient id="SVGID_7_" cx="-76.155" cy="-87.185" r="14.755" gradientUnits="userSpaceOnUse">
					<stop  offset="0" style="stop-color:#76ADDA"/>
					<stop  offset="0.1466" style="stop-color:#5B9ACA"/>
					<stop  offset="0.3055" style="stop-color:#468BBD"/>
					<stop  offset="0.4823" style="stop-color:#3781B4"/>
					<stop  offset="0.6893" style="stop-color:#2E7BAF"/>
					<stop  offset="1" style="stop-color:#2B79AD"/>
				</radialGradient>
				<path fill="none" stroke="url(#SVGID_7_)" stroke-miterlimit="10" d="M-61.9-87.2c0,7.9-6.4,14.2-14.2,14.2
					c-7.9,0-14.3-6.4-14.3-14.2c0-7.9,6.4-14.3,14.3-14.3C-68.3-101.4-61.9-95.1-61.9-87.2z"/>
			</g>
		</g>
	</g>
</g>
</svg>
